<svg width="35" height="39" viewBox="0 0 35 39" fill="none" xmlns="http://www.w3.org/2000/svg">
<path d="M21.2297 11.8214C17.2546 11.3326 14.2468 14.1126 12.1711 15.9048C9.41528 18.2876 6.75011 24.0513 7.61666 28.2009C8.29177 31.4442 11.0779 34.4278 14.2771 35.1661C18.5292 36.1488 21.7688 34.5246 23.5371 33.4146C24.8773 32.5745 29.3209 29.0002 29.3008 25.8689C29.2 10.3652 26.5651 12.4782 21.2297 11.8214ZM24.4339 18.8834C23.26 18.8834 22.3078 17.6512 22.3078 16.1339C22.3078 14.6166 23.26 13.3845 24.4339 13.3845C25.6078 13.3845 26.56 14.6166 26.56 16.1339C26.56 17.6512 25.6078 18.8834 24.4339 18.8834Z" fill="white"/>
<path d="M16.1913 7.45298C16.6548 4.28095 14.569 0.309548 10.997 0.166985C6.84054 -0.00103569 5.26864 5.30435 6.19062 7.72283C7.49045 11.124 10.7048 14.9019 11.3799 14.6931C12.4278 14.3673 15.7882 10.2126 16.1913 7.45298Z" fill="white"/>
<path d="M6.30156 11.7146C4.29135 11.292 1.54556 11.8674 1.44984 14.8306C1.34908 18.0994 4.92615 18.4253 6.095 18.2471C7.76262 17.9925 9.42016 16.6432 10.5437 15.3551C10.6595 15.2227 10.6495 15.0241 10.5285 14.8917C9.86855 14.1789 7.75758 12.0201 6.30156 11.7146Z" fill="white"/>
<path d="M12.5439 32.9308C9.66708 30.9502 8.0297 27.8953 7.62161 25.1611C7.57123 25.3546 7.51077 25.543 7.46038 25.7365C6.9213 27.9157 6.8407 32.6304 7.68711 33.4349C8.28664 34.0051 12.6043 35.441 15.2493 35.5173C15.8942 35.5377 16.4434 35.5173 16.9623 35.4715C15.5869 34.8758 14.3677 34.1884 12.5439 32.9308Z" fill="white"/>
<path d="M18.0755 27.5644C14.3069 24.1734 13.6066 22.7987 12.9315 19.0666C12.6444 17.4933 12.9366 16.0575 13.1129 15.0239C11.9944 16.0015 11.0372 17.0402 10.2512 18.145C10.1051 18.9902 8.7398 22.8853 12.4529 27.6357C16.2416 32.4879 20.6852 33.659 22.3226 34.1427C23.0834 33.7302 23.8189 33.2567 24.5293 32.6916C25.0382 32.2893 25.5168 31.8718 25.9652 31.4492C24.5847 31.1692 21.0429 30.2374 18.0755 27.5644Z" fill="white"/>
<path d="M30.9427 20.5431C30.8571 18.4352 30.1618 16.5361 28.8569 14.8558C27.5974 13.2316 26.096 12.1726 24.3528 11.6838C22.6096 11.195 20.8261 11.2052 19.0074 11.7144C18.0955 11.9689 17.2188 12.3152 16.3724 12.753C16.1759 14.1532 15.8132 18.6592 18.6194 21.9331C21.5063 25.3037 26.9223 27.992 28.5244 28.4503C28.862 27.9462 29.1642 27.4319 29.4363 26.9075C30.5245 24.7742 31.0284 22.651 30.9427 20.5431ZM25.3756 16.6684C24.9574 16.9077 24.4586 16.6837 24.0707 16.3986C23.5165 15.9964 23.0328 16.2713 24.5191 15.1308C24.7458 14.9577 25.4713 15.0391 25.7081 15.4668C25.9449 15.8894 25.7988 16.4291 25.3756 16.6684Z" fill="white"/>
<path d="M31.8547 38.8221C31.8547 38.8221 29.3357 36.4138 30.8068 30.9505C31.5021 28.3691 34.0614 26.3325 34.0614 26.3325C34.0614 26.3325 31.2552 27.0199 29.2198 29.7388C26.8166 32.9464 26.4186 35.4107 26.2926 36.1185C26.1667 36.8262 25.3959 36.3934 26.0155 34.6368C26.2775 33.8884 26.4942 33.3436 26.4942 33.3436C26.4942 33.3436 24.6855 34.311 24.0053 35.5482C23.2294 36.9586 23.1388 37.4321 23.1388 37.8852C23.1388 38.3384 23.1791 37.0808 22.4234 36.1999C22.0102 35.7162 20.9925 35.4769 20.9925 35.4769C20.9925 35.4769 21.6878 36.2203 21.7079 36.9026C21.7482 38.3435 20.9119 38.5268 20.9119 38.5268C20.9119 38.5268 20.1663 38.8017 19.9244 37.8394C19.602 36.5512 17.8034 36.8262 17.8034 36.8262C17.8034 36.8262 18.4886 37.0858 18.3576 38.0532C18.2316 39.0206 17.0376 38.7457 17.0376 38.7457L29.25 38.817H31.8547V38.8221Z" fill="white"/>
<path d="M2.25554 38.8221C2.25554 38.8221 4.7746 36.4138 3.30347 30.9505C2.6082 28.3691 0.0488281 26.3325 0.0488281 26.3325C0.0488281 26.3325 2.85507 27.0199 4.89048 29.7388C7.29367 32.9464 7.69168 35.4107 7.81764 36.1185C7.94359 36.8262 8.71444 36.3934 8.09475 34.6368C7.83276 33.8884 7.61612 33.3436 7.61612 33.3436C7.61612 33.3436 9.42481 34.311 10.105 35.5482C10.8808 36.9586 10.9715 37.4321 10.9715 37.8852C10.9715 38.3384 10.9312 37.0808 11.6869 36.1999C12.1001 35.7162 13.1178 35.4769 13.1178 35.4769C13.1178 35.4769 12.4225 36.2203 12.4024 36.9026C12.362 38.3435 13.1984 38.5268 13.1984 38.5268C13.1984 38.5268 13.944 38.8017 14.1859 37.8394C14.5083 36.5512 16.3069 36.8262 16.3069 36.8262C16.3069 36.8262 15.6217 37.0859 15.7527 38.0532C15.8787 39.0206 17.0727 38.7457 17.0727 38.7457L4.86025 38.817H2.25554V38.8221Z" fill="white"/>
</svg>
